<?xml version="1.0" encoding="UTF-8" standalone="no"?>
<!DOCTYPE svg PUBLIC "-//W3C//DTD SVG 1.1//EN"
 "http://www.w3.org/Graphics/SVG/1.1/DTD/svg11.dtd">
<!-- Generated by graphviz version 2.47.0 (20210316.0004)
 -->
<!-- Title: G Pages: 1 -->
<svg width="727pt" height="98pt"
 viewBox="0.00 0.00 727.27 98.00" xmlns="http://www.w3.org/2000/svg" xmlns:xlink="http://www.w3.org/1999/xlink">
<g id="graph0" class="graph" transform="scale(1 1) rotate(0) translate(4 94)">
<title>G</title>
<polygon fill="white" stroke="transparent" points="-4,4 -4,-94 723.27,-94 723.27,4 -4,4"/>
<!-- A -->
<g id="node1" class="node">
<title>A</title>
<polygon fill="none" stroke="red" points="54,-63 0,-63 0,-27 54,-27 54,-63"/>
<text text-anchor="middle" x="27" y="-41.3" font-family="Times,serif" font-size="14.00">.ipynb</text>
</g>
<!-- B -->
<g id="node2" class="node">
<title>B</title>
<ellipse fill="none" stroke="black" cx="158.24" cy="-72" rx="61.99" ry="18"/>
<text text-anchor="middle" x="158.24" y="-68.3" font-family="Times,serif" font-size="14.00">nbdev_nb2md</text>
</g>
<!-- A&#45;&gt;B -->
<g id="edge3" class="edge">
<title>A&#45;&gt;B</title>
<path fill="none" stroke="black" d="M54.15,-50.46C66.74,-53.09 82.39,-56.36 97.65,-59.55"/>
<polygon fill="black" stroke="black" points="97.09,-63.01 107.6,-61.63 98.53,-56.16 97.09,-63.01"/>
</g>
<!-- nbdev -->
<g id="node8" class="node">
<title>nbdev</title>
<ellipse fill="none" stroke="black" cx="158.24" cy="-18" rx="68.49" ry="18"/>
<text text-anchor="middle" x="158.24" y="-14.3" font-family="Times,serif" font-size="14.00">nbdev_build_lib</text>
</g>
<!-- A&#45;&gt;nbdev -->
<g id="edge1" class="edge">
<title>A&#45;&gt;nbdev</title>
<path fill="none" stroke="black" d="M54.15,-39.54C65.73,-37.12 79.89,-34.16 93.97,-31.22"/>
<polygon fill="black" stroke="black" points="95.09,-34.56 104.17,-29.09 93.66,-27.71 95.09,-34.56"/>
</g>
<!-- C -->
<g id="node3" class="node">
<title>C</title>
<polygon fill="none" stroke="black" points="316.49,-90 262.49,-90 262.49,-54 316.49,-54 316.49,-90"/>
<text text-anchor="middle" x="289.49" y="-68.3" font-family="Times,serif" font-size="14.00">.md</text>
</g>
<!-- B&#45;&gt;C -->
<g id="edge4" class="edge">
<title>B&#45;&gt;C</title>
<path fill="none" stroke="black" d="M220.08,-72C231.16,-72 242.39,-72 252.46,-72"/>
<polygon fill="black" stroke="black" points="252.47,-75.5 262.47,-72 252.47,-68.5 252.47,-75.5"/>
</g>
<!-- D -->
<g id="node4" class="node">
<title>D</title>
<ellipse fill="none" stroke="black" cx="388.88" cy="-72" rx="36.29" ry="18"/>
<text text-anchor="middle" x="388.88" y="-68.3" font-family="Times,serif" font-size="14.00">pandoc</text>
</g>
<!-- C&#45;&gt;D -->
<g id="edge5" class="edge">
<title>C&#45;&gt;D</title>
<path fill="none" stroke="black" d="M316.59,-72C324.45,-72 333.31,-72 342.05,-72"/>
<polygon fill="black" stroke="black" points="342.19,-75.5 352.19,-72 342.19,-68.5 342.19,-75.5"/>
</g>
<!-- E -->
<g id="node5" class="node">
<title>E</title>
<polygon fill="none" stroke="black" points="515.28,-90 461.28,-90 461.28,-54 515.28,-54 515.28,-90"/>
<text text-anchor="middle" x="488.28" y="-68.3" font-family="Times,serif" font-size="14.00">.tex</text>
</g>
<!-- D&#45;&gt;E -->
<g id="edge6" class="edge">
<title>D&#45;&gt;E</title>
<path fill="none" stroke="black" d="M425.32,-72C433.66,-72 442.56,-72 450.93,-72"/>
<polygon fill="black" stroke="black" points="451.18,-75.5 461.18,-72 451.18,-68.5 451.18,-75.5"/>
</g>
<!-- F -->
<g id="node6" class="node">
<title>F</title>
<ellipse fill="none" stroke="black" cx="590.28" cy="-72" rx="38.99" ry="18"/>
<text text-anchor="middle" x="590.28" y="-68.3" font-family="Times,serif" font-size="14.00">pdflatex</text>
</g>
<!-- E&#45;&gt;F -->
<g id="edge7" class="edge">
<title>E&#45;&gt;F</title>
<path fill="none" stroke="black" d="M515.29,-72C523.11,-72 531.96,-72 540.74,-72"/>
<polygon fill="black" stroke="black" points="540.96,-75.5 550.96,-72 540.96,-68.5 540.96,-75.5"/>
</g>
<!-- G -->
<g id="node7" class="node">
<title>G</title>
<polygon fill="none" stroke="green" points="719.27,-90 665.27,-90 665.27,-54 719.27,-54 719.27,-90"/>
<text text-anchor="middle" x="692.27" y="-68.3" font-family="Times,serif" font-size="14.00">.pdf</text>
</g>
<!-- F&#45;&gt;G -->
<g id="edge8" class="edge">
<title>F&#45;&gt;G</title>
<path fill="none" stroke="black" d="M629.37,-72C637.75,-72 646.61,-72 654.92,-72"/>
<polygon fill="black" stroke="black" points="655.08,-75.5 665.08,-72 655.08,-68.5 655.08,-75.5"/>
</g>
<!-- py -->
<g id="node9" class="node">
<title>py</title>
<polygon fill="none" stroke="green" points="316.49,-36 262.49,-36 262.49,0 316.49,0 316.49,-36"/>
<text text-anchor="middle" x="289.49" y="-14.3" font-family="Times,serif" font-size="14.00">.py</text>
</g>
<!-- nbdev&#45;&gt;py -->
<g id="edge2" class="edge">
<title>nbdev&#45;&gt;py</title>
<path fill="none" stroke="black" d="M226.52,-18C235.39,-18 244.19,-18 252.26,-18"/>
<polygon fill="black" stroke="black" points="252.38,-21.5 262.38,-18 252.38,-14.5 252.38,-21.5"/>
</g>
</g>
</svg>
